<svg id="visual" viewBox="0 0 675 900" width="675" height="900" xmlns="http://www.w3.org/2000/svg" xmlns:xlink="http://www.w3.org/1999/xlink" version="1.1"><rect x="0" y="0" width="675" height="900" fill="#0a000b"></rect><path d="M0 478L16 489.7C32 501.3 64 524.7 96.2 522.8C128.3 521 160.7 494 192.8 485.2C225 476.3 257 485.7 289.2 491.5C321.3 497.3 353.7 499.7 385.8 516.8C418 534 450 566 482.2 573.8C514.3 581.7 546.7 565.3 578.8 546.2C611 527 643 505 659 494L675 483L675 901L659 901C643 901 611 901 578.8 901C546.7 901 514.3 901 482.2 901C450 901 418 901 385.8 901C353.7 901 321.3 901 289.2 901C257 901 225 901 192.8 901C160.7 901 128.3 901 96.2 901C64 901 32 901 16 901L0 901Z" fill="#170019"></path><path d="M0 614L16 625.5C32 637 64 660 96.2 653C128.3 646 160.7 609 192.8 593.2C225 577.3 257 582.7 289.2 599.7C321.3 616.7 353.7 645.3 385.8 635.8C418 626.3 450 578.7 482.2 565C514.3 551.3 546.7 571.7 578.8 592.3C611 613 643 634 659 644.5L675 655L675 901L659 901C643 901 611 901 578.8 901C546.7 901 514.3 901 482.2 901C450 901 418 901 385.8 901C353.7 901 321.3 901 289.2 901C257 901 225 901 192.8 901C160.7 901 128.3 901 96.2 901C64 901 32 901 16 901L0 901Z" fill="#150016"></path><path d="M0 613L16 627.5C32 642 64 671 96.2 679.3C128.3 687.7 160.7 675.3 192.8 661.8C225 648.3 257 633.7 289.2 633.2C321.3 632.7 353.7 646.3 385.8 655C418 663.7 450 667.3 482.2 665.3C514.3 663.3 546.7 655.7 578.8 662.2C611 668.7 643 689.3 659 699.7L675 710L675 901L659 901C643 901 611 901 578.8 901C546.7 901 514.3 901 482.2 901C450 901 418 901 385.8 901C353.7 901 321.3 901 289.2 901C257 901 225 901 192.8 901C160.7 901 128.3 901 96.2 901C64 901 32 901 16 901L0 901Z" fill="#120012"></path><path d="M0 738L16 743.5C32 749 64 760 96.2 753.5C128.3 747 160.7 723 192.8 726.3C225 729.7 257 760.3 289.2 770.2C321.3 780 353.7 769 385.8 762.8C418 756.7 450 755.3 482.2 759.3C514.3 763.3 546.7 772.7 578.8 766.5C611 760.3 643 738.7 659 727.8L675 717L675 901L659 901C643 901 611 901 578.8 901C546.7 901 514.3 901 482.2 901C450 901 418 901 385.8 901C353.7 901 321.3 901 289.2 901C257 901 225 901 192.8 901C160.7 901 128.3 901 96.2 901C64 901 32 901 16 901L0 901Z" fill="#0e000d"></path><path d="M0 805L16 799.2C32 793.3 64 781.7 96.2 788C128.3 794.3 160.7 818.7 192.8 820.7C225 822.7 257 802.3 289.2 799.7C321.3 797 353.7 812 385.8 814.3C418 816.7 450 806.3 482.2 803.5C514.3 800.7 546.7 805.3 578.8 801.8C611 798.3 643 786.7 659 780.8L675 775L675 901L659 901C643 901 611 901 578.8 901C546.7 901 514.3 901 482.2 901C450 901 418 901 385.8 901C353.7 901 321.3 901 289.2 901C257 901 225 901 192.8 901C160.7 901 128.3 901 96.2 901C64 901 32 901 16 901L0 901Z" fill="#090008"></path></svg>