<svg id="visual" viewBox="0 0 600 900" width="600" height="900" xmlns="http://www.w3.org/2000/svg" xmlns:xlink="http://www.w3.org/1999/xlink" version="1.1"><rect width="600" height="900" fill="#0a000b"></rect><g><g transform="translate(595 349)"><path d="M0 -34.7L24.5 -24.5L34.7 0L24.5 24.5L0 34.7L-24.5 24.5L-34.7 0L-24.5 -24.5Z" fill="#120012"></path></g><g transform="translate(470 519)"><path d="M0 -26L18.4 -18.4L26 0L18.4 18.4L0 26L-18.4 18.4L-26 0L-18.4 -18.4Z" fill="#120012"></path></g><g transform="translate(321 823)"><path d="M0 -25L17.7 -17.7L25 0L17.7 17.7L0 25L-17.7 17.7L-25 0L-17.7 -17.7Z" fill="#120012"></path></g><g transform="translate(456 298)"><path d="M0 -23L16.3 -16.3L23 0L16.3 16.3L0 23L-16.3 16.3L-23 0L-16.3 -16.3Z" fill="#120012"></path></g><g transform="translate(134 131)"><path d="M0 -26L18.4 -18.4L26 0L18.4 18.4L0 26L-18.4 18.4L-26 0L-18.4 -18.4Z" fill="#120012"></path></g><g transform="translate(283 162)"><path d="M0 -11L7.8 -7.8L11 0L7.8 7.8L0 11L-7.8 7.8L-11 0L-7.8 -7.8Z" fill="#120012"></path></g><g transform="translate(490 14)"><path d="M0 -8L5.7 -5.7L8 0L5.7 5.7L0 8L-5.7 5.7L-8 0L-5.7 -5.7Z" fill="#120012"></path></g><g transform="translate(192 833)"><path d="M0 -7L4.9 -4.9L7 0L4.9 4.9L0 7L-4.9 4.9L-7 0L-4.9 -4.9Z" fill="#120012"></path></g><g transform="translate(360 484)"><path d="M0 -8L5.7 -5.7L8 0L5.7 5.7L0 8L-5.7 5.7L-8 0L-5.7 -5.7Z" fill="#120012"></path></g><g transform="translate(542 115)"><path d="M0 -16L11.3 -11.3L16 0L11.3 11.3L0 16L-11.3 11.3L-16 0L-11.3 -11.3Z" fill="#120012"></path></g><g transform="translate(483 391)"><path d="M0 -23L16.3 -16.3L23 0L16.3 16.3L0 23L-16.3 16.3L-23 0L-16.3 -16.3Z" fill="#120012"></path></g><g transform="translate(230 495)"><path d="M0 -20L14.1 -14.1L20 0L14.1 14.1L0 20L-14.1 14.1L-20 0L-14.1 -14.1Z" fill="#120012"></path></g><g transform="translate(511 845)"><path d="M0 -26L18.4 -18.4L26 0L18.4 18.4L0 26L-18.4 18.4L-26 0L-18.4 -18.4Z" fill="#120012"></path></g><g transform="translate(532 259)"><path d="M0 -11L7.8 -7.8L11 0L7.8 7.8L0 11L-7.8 7.8L-11 0L-7.8 -7.8Z" fill="#120012"></path></g><g transform="translate(393 676)"><path d="M0 -17L12 -12L17 0L12 12L0 17L-12 12L-17 0L-12 -12Z" fill="#120012"></path></g><g transform="translate(153 383)"><path d="M0 -21L14.8 -14.8L21 0L14.8 14.8L0 21L-14.8 14.8L-21 0L-14.8 -14.8Z" fill="#120012"></path></g><g transform="translate(184 216)"><path d="M0 -21L14.8 -14.8L21 0L14.8 14.8L0 21L-14.8 14.8L-21 0L-14.8 -14.8Z" fill="#120012"></path></g><g transform="translate(173 29)"><path d="M0 -23L16.3 -16.3L23 0L16.3 16.3L0 23L-16.3 16.3L-23 0L-16.3 -16.3Z" fill="#120012"></path></g><g transform="translate(289 312)"><path d="M0 -23L16.3 -16.3L23 0L16.3 16.3L0 23L-16.3 16.3L-23 0L-16.3 -16.3Z" fill="#120012"></path></g><g transform="translate(384 115)"><path d="M0 -15L10.6 -10.6L15 0L10.6 10.6L0 15L-10.6 10.6L-15 0L-10.6 -10.6Z" fill="#120012"></path></g><g transform="translate(85 44)"><path d="M0 -30L21.2 -21.2L30 0L21.2 21.2L0 30L-21.2 21.2L-30 0L-21.2 -21.2Z" fill="#120012"></path></g><g transform="translate(10 351)"><path d="M0 -11L7.8 -7.8L11 0L7.8 7.8L0 11L-7.8 7.8L-11 0L-7.8 -7.8Z" fill="#120012"></path></g><g transform="translate(585 610)"><path d="M0 -22L15.6 -15.6L22 0L15.6 15.6L0 22L-15.6 15.6L-22 0L-15.6 -15.6Z" fill="#120012"></path></g><g transform="translate(543 697)"><path d="M0 -33L23.3 -23.3L33 0L23.3 23.3L0 33L-23.3 23.3L-33 0L-23.3 -23.3Z" fill="#120012"></path></g><g transform="translate(18 78)"><path d="M0 -19L13.4 -13.4L19 0L13.4 13.4L0 19L-13.4 13.4L-19 0L-13.4 -13.4Z" fill="#120012"></path></g><g transform="translate(121 446)"><path d="M0 -25L17.7 -17.7L25 0L17.7 17.7L0 25L-17.7 17.7L-25 0L-17.7 -17.7Z" fill="#120012"></path></g><g transform="translate(10 485)"><path d="M0 -16L11.3 -11.3L16 0L11.3 11.3L0 16L-11.3 11.3L-16 0L-11.3 -11.3Z" fill="#120012"></path></g></g></svg>